# xmcd
#
# Track frame offsets:
#	150
#	14145
#	30758
#	45072
#	60719
#	74787
#	91841
#	105518
#	121023
#	136331
#	151003
#	167101
#	179959
#	196527
#	213611
#	227920
#	240630
#	256238
#	270797
#	287180
#	313448
#
# Disc length: 4795 seconds
#
# Revision: 1
# Processed by: cddbd v1.5.2PL0 Copyright (c) Steve Scherf et al.
# Submitted via: audiograbber 1.83.01
#
DISCID=2212b915
DTITLE=Verschiedene - Schlager in Gold - CD2
DYEAR=2003
DGENRE=Schlager
TTITLE0=Für mich bist du schön - DIE PALDAUER
TTITLE1=Hast du heute schon gelächelt - MONIKA MARTIN
TTITLE2=Das geht vorbei - UWE BUSSE
TTITLE3=Jetzt will ich leben - ANDREAS
TTITLE4=Solange wir lieben - SIMONE
TTITLE5=Ein Sommer am See - KAREL GOTT
TTITLE6=Wenn Männer wüssten - MARLENA MARTINELLI
TTITLE7=Un Anno D' Amore - ROSANNA ROCCI and MICHAEL MORGAN
TTITLE8=Julia - TOMMY STEINER
TTITLE9=Jede Nacht mit dir ist der Wahnsinn - IREEN SHEER
TTITLE10=Inno D' Amore - PETRA FREY and ANDREAS
TTITLE11=Einmal durch das Feuer gehn - OLIVER HAIDT
TTITLE12=Veronika - GEORGE BAKER
TTITLE13=Mach mich nicht schwach - PEGGY MARCH
TTITLE14=Mein Herz macht Bum-Bum-Bum - MARC TANNER
TTITLE15=Sag niemals nie - FRANCINE JORDI
TTITLE16=Bolero D' Amore - FERNANDO EXPRESS
TTITLE17=Du hast mein Herz entführt - CHANTAL
TTITLE18=Wind in deinen Haren - MOONBEATS
TTITLE19=Unsichtbare Tränen - MARA KAYSER
TTITLE20=Daten-CD
EXTD=
EXTT0=
EXTT1=
EXTT2=
EXTT3=
EXTT4=
EXTT5=
EXTT6=
EXTT7=
EXTT8=
EXTT9=
EXTT10=
EXTT11=
EXTT12=
EXTT13=
EXTT14=
EXTT15=
EXTT16=
EXTT17=
EXTT18=
EXTT19=
EXTT20=
PLAYORDER=
